<?xml version="1.0" encoding="UTF-8"?>
<svg xmlns="http://www.w3.org/2000/svg" xmlns:xlink="http://www.w3.org/1999/xlink" viewBox="0 0 50 50" width="50px" height="50px">
<g id="surface147517195">
<path style=" stroke:none;fill-rule:nonzero;fill:rgb(10.980392%,30.980393%,50.980395%);fill-opacity:1;" d="M 32.230469 10 C 39.4375 10 40 10.5625 40 17.769531 L 40 32.277344 C 40 39.4375 39.441406 40 32.277344 40 L 17.722656 40 C 10.558594 40 10 39.4375 10 32.277344 L 10 17.722656 C 10 10.558594 10.558594 10 17.722656 10 Z M 19.769531 33.25 L 19.769531 21.046875 L 15.976562 21.046875 L 15.976562 33.25 Z M 17.875 19.300781 C 19.09375 19.300781 20.085938 18.308594 20.085938 17.089844 C 20.085938 15.867188 19.09375 14.878906 17.875 14.878906 C 16.652344 14.878906 15.664062 15.867188 15.664062 17.089844 C 15.664062 18.308594 16.652344 19.300781 17.875 19.300781 Z M 34 33.25 L 34 26.558594 C 34 23.269531 33.289062 20.742188 29.449219 20.742188 C 27.605469 20.742188 26.367188 21.753906 25.863281 22.714844 L 25.808594 22.714844 L 25.808594 21.046875 L 22.171875 21.046875 L 22.171875 33.25 L 25.960938 33.25 L 25.960938 27.210938 C 25.960938 25.621094 26.265625 24.078125 28.238281 24.078125 C 30.183594 24.078125 30.210938 25.898438 30.210938 27.316406 L 30.210938 33.25 Z M 34 33.25 "/>
</g>
</svg>
